<?xml version="1.0" standalone="no"?>
<!DOCTYPE svg PUBLIC "-//W3C//DTD SVG 20010904//EN"
 "http://www.w3.org/TR/2001/REC-SVG-20010904/DTD/svg10.dtd">
<svg version="1.0" xmlns="http://www.w3.org/2000/svg"
 width="234.000000pt" height="234.000000pt" viewBox="0 0 234.000000 234.000000"
 preserveAspectRatio="xMidYMid meet">
<metadata>
Created by potrace 1.14, written by Peter Selinger 2001-2017
</metadata>
<g transform="translate(0.000000,234.000000) scale(0.100000,-0.100000)"
fill="#000000" stroke="none">
<path d="M1195 1663 c-121 -24 -224 -49 -230 -54 -6 -6 -12 -132 -15 -317 l-5
-306 -80 -23 c-105 -29 -140 -63 -132 -131 3 -30 13 -53 31 -71 23 -22 35 -26
84 -25 69 0 115 23 139 67 16 28 18 67 21 309 3 250 5 278 20 282 36 11 367
76 388 76 28 0 34 -34 34 -216 0 -97 -4 -145 -12 -157 -7 -9 -43 -25 -80 -36
-87 -24 -115 -43 -129 -89 -24 -80 39 -149 126 -140 54 7 93 27 119 61 20 28
21 38 21 420 l0 392 -40 2 c-22 1 -139 -19 -260 -44z m262 31 c-3 -3 -12 -4
-19 -1 -8 3 -5 6 6 6 11 1 17 -2 13 -5z m-44 -11 c-7 -2 -19 -2 -25 0 -7 3 -2
5 12 5 14 0 19 -2 13 -5z m-50 -10 c-7 -2 -19 -2 -25 0 -7 3 -2 5 12 5 14 0
19 -2 13 -5z m-50 -10 c-7 -2 -19 -2 -25 0 -7 3 -2 5 12 5 14 0 19 -2 13 -5z
m-50 -10 c-7 -2 -19 -2 -25 0 -7 3 -2 5 12 5 14 0 19 -2 13 -5z m-50 -10 c-7
-2 -19 -2 -25 0 -7 3 -2 5 12 5 14 0 19 -2 13 -5z m-50 -10 c-7 -2 -19 -2 -25
0 -7 3 -2 5 12 5 14 0 19 -2 13 -5z m-50 -10 c-7 -2 -19 -2 -25 0 -7 3 -2 5
12 5 14 0 19 -2 13 -5z m-50 -10 c-7 -2 -19 -2 -25 0 -7 3 -2 5 12 5 14 0 19
-2 13 -5z m-43 -7 c0 -2 -11 -6 -25 -8 -14 -3 -25 -1 -25 3 0 5 11 9 25 9 14
0 25 -2 25 -4z m450 -520 c0 -3 -4 -8 -10 -11 -5 -3 -10 -1 -10 4 0 6 5 11 10
11 6 0 10 -2 10 -4z m-135 -86 c11 -18 -15 -40 -46 -40 -35 0 -37 13 -7 34 26
19 44 20 53 6z m-365 -20 c0 -5 -5 -10 -11 -10 -5 0 -7 5 -4 10 3 6 8 10 11
10 2 0 4 -4 4 -10z m-130 -83 c0 -20 -22 -37 -47 -37 -27 0 -31 24 -5 39 24
15 52 13 52 -2z"/>
</g>
</svg>
